<svg width="130" height="27" viewBox="0 0 130 27" fill="none" xmlns="http://www.w3.org/2000/svg">
<path d="M0.912656 13.76C0.912656 12.2867 1.17332 10.8473 1.69466 9.442C2.21599 8.014 2.97532 6.722 3.97266 5.566C4.99266 4.38733 6.22799 3.458 7.67866 2.778C9.12932 2.07533 10.7727 1.724 12.6087 1.724C14.7847 1.724 16.666 2.22267 18.2527 3.22C19.8393 4.19467 21.018 5.45267 21.7887 6.994L18.7967 9C18.3433 8.02533 17.7653 7.25467 17.0627 6.688C16.3827 6.12133 15.6347 5.72466 14.8187 5.498C14.0253 5.27133 13.2433 5.158 12.4727 5.158C11.2033 5.158 10.0927 5.41867 9.14066 5.94C8.18866 6.43867 7.38399 7.10733 6.72666 7.946C6.09199 8.78467 5.60466 9.72533 5.26466 10.768C4.94732 11.8107 4.78866 12.8533 4.78866 13.896C4.78866 15.052 4.98132 16.174 5.36666 17.262C5.75199 18.3273 6.28466 19.2793 6.96466 20.118C7.66732 20.934 8.49466 21.58 9.44666 22.056C10.3987 22.532 11.4413 22.77 12.5747 22.77C13.3453 22.77 14.15 22.634 14.9887 22.362C15.8273 22.09 16.598 21.6707 17.3007 21.104C18.026 20.5147 18.5927 19.744 19.0007 18.792L22.1627 20.594C21.664 21.7953 20.882 22.8153 19.8167 23.654C18.774 24.4927 17.5953 25.1273 16.2807 25.558C14.9887 25.9887 13.708 26.204 12.4387 26.204C10.7387 26.204 9.18599 25.8527 7.78066 25.15C6.37532 24.4247 5.16266 23.4727 4.14266 22.294C3.12266 21.0927 2.32932 19.7553 1.76266 18.282C1.19599 16.786 0.912656 15.2787 0.912656 13.76ZM25.2088 26V8.218H28.9488V26H25.2088ZM25.2088 5.294V1.18H28.9488V5.294H25.2088ZM49.3892 26H45.6492V16.038C45.6492 14.3833 45.3772 13.1707 44.8332 12.4C44.3119 11.6293 43.5299 11.244 42.4872 11.244C41.7619 11.244 41.0366 11.4253 40.3112 11.788C39.6086 12.1507 38.9739 12.6493 38.4072 13.284C37.8406 13.896 37.4326 14.61 37.1832 15.426V26H33.4432V8.218H36.8432V11.788C37.2966 10.9947 37.8859 10.3147 38.6112 9.748C39.3592 9.15867 40.1979 8.70533 41.1272 8.388C42.0566 8.07067 43.0426 7.912 44.0852 7.912C45.1506 7.912 46.0232 8.10467 46.7032 8.49C47.4059 8.87533 47.9499 9.408 48.3352 10.088C48.7432 10.7453 49.0152 11.516 49.1512 12.4C49.3099 13.2613 49.3892 14.1793 49.3892 15.154V26ZM61.7883 26.34C60.4057 26.34 59.1477 26.102 58.0143 25.626C56.9037 25.1273 55.9403 24.4587 55.1243 23.62C54.3083 22.7587 53.6737 21.784 53.2203 20.696C52.7897 19.5853 52.5743 18.4067 52.5743 17.16C52.5743 15.4827 52.9597 13.9527 53.7303 12.57C54.501 11.1647 55.5777 10.0427 56.9603 9.204C58.343 8.34267 59.9637 7.912 61.8223 7.912C63.681 7.912 65.279 8.34267 66.6163 9.204C67.9763 10.0427 69.0303 11.1533 69.7783 12.536C70.5263 13.9187 70.9003 15.4033 70.9003 16.99C70.9003 17.262 70.889 17.5227 70.8663 17.772C70.8437 17.9987 70.821 18.1913 70.7983 18.35H56.5523C56.6203 19.3927 56.9037 20.3107 57.4023 21.104C57.9237 21.8747 58.581 22.4867 59.3743 22.94C60.1677 23.3707 61.0177 23.586 61.9243 23.586C62.9217 23.586 63.8623 23.3367 64.7463 22.838C65.653 22.3393 66.265 21.682 66.5823 20.866L69.7783 21.784C69.393 22.6453 68.8037 23.4273 68.0103 24.13C67.2397 24.81 66.3217 25.354 65.2563 25.762C64.191 26.1473 63.035 26.34 61.7883 26.34ZM56.4503 15.868H67.1943C67.1263 14.848 66.8317 13.9527 66.3103 13.182C65.8117 12.3887 65.1657 11.7767 64.3723 11.346C63.6017 10.8927 62.7403 10.666 61.7883 10.666C60.859 10.666 59.9977 10.8927 59.2043 11.346C58.4337 11.7767 57.799 12.3887 57.3003 13.182C56.8017 13.9527 56.5183 14.848 56.4503 15.868ZM89.153 26.238C87.861 26.238 86.8523 25.898 86.127 25.218C85.4017 24.5153 85.039 23.5747 85.039 22.396V7.776C85.039 7.14133 84.9483 6.54067 84.767 5.974C84.5857 5.40733 84.2683 4.94267 83.815 4.58C83.3617 4.21733 82.7043 4.036 81.843 4.036C81.0723 4.036 80.449 4.21733 79.973 4.58C79.497 4.94267 79.1457 5.44133 78.919 6.076C78.6923 6.688 78.5677 7.402 78.545 8.218V8.66H81.809V11.55H78.545V26H74.805V11.55H72.425V8.66H74.805V7.64C74.805 6.212 75.077 4.99933 75.621 4.002C76.165 2.982 76.9583 2.2 78.001 1.656C79.0437 1.112 80.3017 0.84 81.775 0.84C84.155 0.84 85.9117 1.418 87.045 2.574C88.201 3.70733 88.779 5.18067 88.779 6.994V20.798C88.779 21.6593 88.9037 22.226 89.153 22.498C89.425 22.77 89.765 22.906 90.173 22.906C90.6263 22.906 91.0683 22.8493 91.499 22.736C91.9524 22.6227 92.2924 22.5207 92.519 22.43L93.063 25.456C92.8137 25.5693 92.4624 25.6827 92.009 25.796C91.5557 25.9093 91.0797 26.0113 90.581 26.102C90.0824 26.1927 89.6064 26.238 89.153 26.238ZM103.259 26.34C101.876 26.34 100.618 26.102 99.485 25.626C98.3744 25.1273 97.411 24.4587 96.595 23.62C95.779 22.7587 95.1444 21.784 94.691 20.696C94.2604 19.5853 94.045 18.4067 94.045 17.16C94.045 15.4827 94.4304 13.9527 95.201 12.57C95.9717 11.1647 97.0484 10.0427 98.431 9.204C99.8137 8.34267 101.434 7.912 103.293 7.912C105.152 7.912 106.75 8.34267 108.087 9.204C109.447 10.0427 110.501 11.1533 111.249 12.536C111.997 13.9187 112.371 15.4033 112.371 16.99C112.371 17.262 112.36 17.5227 112.337 17.772C112.314 17.9987 112.292 18.1913 112.269 18.35H98.023C98.091 19.3927 98.3744 20.3107 98.873 21.104C99.3944 21.8747 100.052 22.4867 100.845 22.94C101.638 23.3707 102.488 23.586 103.395 23.586C104.392 23.586 105.333 23.3367 106.217 22.838C107.124 22.3393 107.736 21.682 108.053 20.866L111.249 21.784C110.864 22.6453 110.274 23.4273 109.481 24.13C108.71 24.81 107.792 25.354 106.727 25.762C105.662 26.1473 104.506 26.34 103.259 26.34ZM97.921 15.868H108.665C108.597 14.848 108.302 13.9527 107.781 13.182C107.282 12.3887 106.636 11.7767 105.843 11.346C105.072 10.8927 104.211 10.666 103.259 10.666C102.33 10.666 101.468 10.8927 100.675 11.346C99.9044 11.7767 99.2697 12.3887 98.771 13.182C98.2724 13.9527 97.989 14.848 97.921 15.868ZM116.866 8.218L121.082 14.304L121.388 14.882L121.694 14.304L125.876 8.218H129.922L123.53 17.126L129.99 26H125.944L121.694 19.948L121.388 19.404L121.082 19.948L116.832 26H112.786L119.246 17.16L112.854 8.218H116.866Z" fill="#FADBC5"/>
</svg>
